<svg xmlns="http://www.w3.org/2000/svg" viewBox="0 0 1600 1820" font-family="-apple-system, 'Segoe UI', Roboto, 'Helvetica Neue', Arial, sans-serif">
  <defs>
    <linearGradient id="bgUi" x1="0" y1="0" x2="0" y2="1">
      <stop offset="0%" stop-color="#EFF6FF"/>
      <stop offset="100%" stop-color="#DBEAFE"/>
    </linearGradient>
    <linearGradient id="bgGw" x1="0" y1="0" x2="0" y2="1">
      <stop offset="0%" stop-color="#FEF2F2"/>
      <stop offset="100%" stop-color="#FEE2E2"/>
    </linearGradient>
    <linearGradient id="bgAi" x1="0" y1="0" x2="0" y2="1">
      <stop offset="0%" stop-color="#FFFBEB"/>
      <stop offset="100%" stop-color="#FEF3C7"/>
    </linearGradient>
    <linearGradient id="bgLlm" x1="0" y1="0" x2="0" y2="1">
      <stop offset="0%" stop-color="#F0FDF4"/>
      <stop offset="100%" stop-color="#DCFCE7"/>
    </linearGradient>
    <linearGradient id="bgData" x1="0" y1="0" x2="0" y2="1">
      <stop offset="0%" stop-color="#EEF2FF"/>
      <stop offset="100%" stop-color="#E0E7FF"/>
    </linearGradient>
    <linearGradient id="bgSync" x1="0" y1="0" x2="0" y2="1">
      <stop offset="0%" stop-color="#FDF2F8"/>
      <stop offset="100%" stop-color="#FCE7F3"/>
    </linearGradient>
    <linearGradient id="bgSrc" x1="0" y1="0" x2="0" y2="1">
      <stop offset="0%" stop-color="#FAF5FF"/>
      <stop offset="100%" stop-color="#F3E8FF"/>
    </linearGradient>
    <linearGradient id="cardWhite" x1="0" y1="0" x2="0" y2="1">
      <stop offset="0%" stop-color="#FFFFFF"/>
      <stop offset="100%" stop-color="#F9FAFB"/>
    </linearGradient>
    <linearGradient id="cardGwAccent" x1="0" y1="0" x2="1" y2="0">
      <stop offset="0%" stop-color="#DC2626"/>
      <stop offset="100%" stop-color="#B91C1C"/>
    </linearGradient>
    <linearGradient id="cardPii" x1="0" y1="0" x2="1" y2="0">
      <stop offset="0%" stop-color="#EF4444"/>
      <stop offset="100%" stop-color="#DC2626"/>
    </linearGradient>
    <linearGradient id="cardKg" x1="0" y1="0" x2="0" y2="1">
      <stop offset="0%" stop-color="#FEF9C3"/>
      <stop offset="100%" stop-color="#FDE68A"/>
    </linearGradient>
    <linearGradient id="cardLlmPro" x1="0" y1="0" x2="0" y2="1">
      <stop offset="0%" stop-color="#5EEAD4"/>
      <stop offset="100%" stop-color="#2DD4BF"/>
    </linearGradient>
    <linearGradient id="cardLlmFlash" x1="0" y1="0" x2="0" y2="1">
      <stop offset="0%" stop-color="#A5F3FC"/>
      <stop offset="100%" stop-color="#67E8F9"/>
    </linearGradient>
    <linearGradient id="titleBg" x1="0" y1="0" x2="1" y2="0">
      <stop offset="0%" stop-color="#1E293B"/>
      <stop offset="100%" stop-color="#0F172A"/>
    </linearGradient>
    <filter id="shadow" x="-20%" y="-20%" width="140%" height="140%">
      <feGaussianBlur in="SourceAlpha" stdDeviation="3"/>
      <feOffset dx="0" dy="2" result="offsetblur"/>
      <feComponentTransfer><feFuncA type="linear" slope="0.18"/></feComponentTransfer>
      <feMerge><feMergeNode/><feMergeNode in="SourceGraphic"/></feMerge>
    </filter>
    <filter id="softShadow" x="-20%" y="-20%" width="140%" height="140%">
      <feGaussianBlur in="SourceAlpha" stdDeviation="2"/>
      <feOffset dx="0" dy="1" result="offsetblur"/>
      <feComponentTransfer><feFuncA type="linear" slope="0.12"/></feComponentTransfer>
      <feMerge><feMergeNode/><feMergeNode in="SourceGraphic"/></feMerge>
    </filter>
    <marker id="arrow" viewBox="0 0 10 10" refX="9" refY="5" markerWidth="7" markerHeight="7" orient="auto-start-reverse">
      <path d="M 0 0 L 10 5 L 0 10 z" fill="#475569"/>
    </marker>
    <marker id="arrowDashed" viewBox="0 0 10 10" refX="9" refY="5" markerWidth="7" markerHeight="7" orient="auto-start-reverse">
      <path d="M 0 0 L 10 5 L 0 10 z" fill="#94A3B8"/>
    </marker>
    <marker id="arrowRed" viewBox="0 0 10 10" refX="9" refY="5" markerWidth="7" markerHeight="7" orient="auto-start-reverse">
      <path d="M 0 0 L 10 5 L 0 10 z" fill="#DC2626"/>
    </marker>
    <marker id="arrowPink" viewBox="0 0 10 10" refX="9" refY="5" markerWidth="7" markerHeight="7" orient="auto-start-reverse">
      <path d="M 0 0 L 10 5 L 0 10 z" fill="#EC4899"/>
    </marker>
    <marker id="arrowPurple" viewBox="0 0 10 10" refX="9" refY="5" markerWidth="7" markerHeight="7" orient="auto-start-reverse">
      <path d="M 0 0 L 10 5 L 0 10 z" fill="#A855F7"/>
    </marker>
    <linearGradient id="geminiGrad" x1="0" y1="0" x2="1" y2="1">
      <stop offset="0%" stop-color="#1C7ED6"/>
      <stop offset="50%" stop-color="#9B72F0"/>
      <stop offset="100%" stop-color="#F76F8E"/>
    </linearGradient>
    <linearGradient id="metaGrad" x1="0" y1="0" x2="1" y2="1">
      <stop offset="0%" stop-color="#0866FF"/>
      <stop offset="100%" stop-color="#A45CF6"/>
    </linearGradient>
  </defs>

  <rect width="1600" height="1820" fill="#F8FAFC"/>

  <!-- TITLE -->
  <rect x="40" y="30" width="1520" height="80" rx="14" fill="url(#titleBg)" filter="url(#shadow)"/>
  <text x="70" y="68" font-size="22" font-weight="700" fill="#FFFFFF" letter-spacing="0.5">BQ SHOES — HIGH-LEVEL ARCHITECTURE</text>
  <text x="70" y="94" font-size="14" fill="#94A3B8">AI-driven CRM &amp; Sales Platform · NestJS · Multi-channel · LLM Orchestration</text>

  <!-- LAYER 1: PLATFORM -->
  <rect x="40" y="140" width="1520" height="150" rx="14" fill="url(#bgUi)" stroke="#BFDBFE" stroke-width="1"/>
  <rect x="40" y="140" width="6" height="150" rx="3" fill="#3B82F6"/>
  <text x="64" y="170" font-size="13" font-weight="700" fill="#1D4ED8" letter-spacing="2">PLATFORM LAYER</text>
  <text x="64" y="186" font-size="11" fill="#64748B">External platforms · Channels + Backend integrations</text>

  <g filter="url(#softShadow)">
    <rect x="60" y="200" width="170" height="70" rx="10" fill="url(#cardWhite)" stroke="#3B82F6" stroke-width="1.5"/>
    <text x="145" y="243" text-anchor="middle" font-size="16" font-weight="700" fill="#0F172A">Web Portal</text>
  </g>

  <g filter="url(#softShadow)">
    <rect x="244" y="200" width="170" height="70" rx="10" fill="url(#cardWhite)" stroke="#3B82F6" stroke-width="1.5"/>
    <text x="329" y="243" text-anchor="middle" font-size="16" font-weight="700" fill="#0F172A">Zalo OA</text>
  </g>

  <g filter="url(#softShadow)">
    <rect x="428" y="200" width="170" height="70" rx="10" fill="url(#cardWhite)" stroke="#3B82F6" stroke-width="1.5"/>
    <text x="513" y="243" text-anchor="middle" font-size="16" font-weight="700" fill="#0F172A">Meta</text>
  </g>

  <g filter="url(#softShadow)">
    <rect x="612" y="200" width="170" height="70" rx="10" fill="url(#cardWhite)" stroke="#3B82F6" stroke-width="1.5"/>
    <text x="697" y="243" text-anchor="middle" font-size="16" font-weight="700" fill="#0F172A">Lark</text>
  </g>

  <g filter="url(#softShadow)">
    <rect x="796" y="200" width="170" height="70" rx="10" fill="url(#cardWhite)" stroke="#3B82F6" stroke-width="1.5"/>
    <text x="881" y="243" text-anchor="middle" font-size="16" font-weight="700" fill="#0F172A">SAP B1</text>
  </g>

  <g filter="url(#softShadow)">
    <rect x="980" y="200" width="170" height="70" rx="10" fill="url(#cardWhite)" stroke="#3B82F6" stroke-width="1.5"/>
    <text x="1065" y="243" text-anchor="middle" font-size="16" font-weight="700" fill="#0F172A">Haravan</text>
  </g>

  <g filter="url(#softShadow)">
    <rect x="1164" y="200" width="170" height="70" rx="10" fill="url(#cardWhite)" stroke="#3B82F6" stroke-width="1.5"/>
    <text x="1249" y="243" text-anchor="middle" font-size="16" font-weight="700" fill="#0F172A">KiotViet</text>
  </g>

  <g filter="url(#softShadow)">
    <rect x="1348" y="200" width="170" height="70" rx="10" fill="url(#cardWhite)" stroke="#3B82F6" stroke-width="1.5"/>
    <text x="1433" y="243" text-anchor="middle" font-size="16" font-weight="700" fill="#0F172A">E-commerce</text>
  </g>

  <g transform="translate(0, 0)">
  <!-- LAYER 2: API GATEWAY -->
  <rect x="40" y="320" width="1520" height="100" rx="14" fill="url(#bgGw)" stroke="#FECACA" stroke-width="1"/>
  <rect x="40" y="320" width="6" height="100" rx="3" fill="#DC2626"/>
  <text x="64" y="350" font-size="13" font-weight="700" fill="#B91C1C" letter-spacing="2">API GATEWAY</text>

  <g filter="url(#shadow)">
    <rect x="350" y="360" width="900" height="50" rx="10" fill="url(#cardGwAccent)"/>
    <text x="800" y="382" text-anchor="middle" font-size="15" font-weight="700" fill="#FFFFFF">NestJS Gateway</text>
    <text x="800" y="400" text-anchor="middle" font-size="11" fill="#FECACA">Auth (Better-Auth) · RBAC · Rate Limit · Audit Log · Multi-tenant</text>
  </g>

  <!-- LAYER 3: AI ORCHESTRATION -->
  <rect x="40" y="450" width="1520" height="240" rx="14" fill="url(#bgAi)" stroke="#FDE68A" stroke-width="1"/>
  <rect x="40" y="450" width="6" height="240" rx="3" fill="#F59E0B"/>
  <text x="64" y="480" font-size="13" font-weight="700" fill="#B45309" letter-spacing="2">AI ORCHESTRATION LAYER</text>
  <text x="64" y="496" font-size="11" fill="#64748B">Intent Router · Specialized Agents · Tool Registry (MCP)</text>

  <g filter="url(#softShadow)">
    <rect x="600" y="510" width="400" height="48" rx="10" fill="#1F2937"/>
    <text x="800" y="532" text-anchor="middle" font-size="14" font-weight="700" fill="#FBBF24">INTENT ROUTER</text>
    <text x="800" y="548" text-anchor="middle" font-size="10" fill="#9CA3AF">Classify intent → dispatch agent · Powered by Gemini Flash</text>
  </g>

  <g filter="url(#softShadow)">
    <rect x="100" y="585" width="380" height="60" rx="10" fill="url(#cardWhite)" stroke="#F59E0B" stroke-width="1.5"/>
    <path d="M 100 595 L 100 585 Q 100 585 110 585 L 470 585 Q 480 585 480 595 L 480 607 L 100 607 Z" fill="#F59E0B"/>
    <text x="115" y="601" font-size="11" font-weight="700" fill="#FFFFFF">P1 · INTERNAL FAQ AGENT</text>
    <text x="290" y="627" text-anchor="middle" font-size="11" fill="#374151">SOP / Policy lookup · Vector retrieval</text>
    <text x="290" y="641" text-anchor="middle" font-size="10" fill="#94A3B8">Target: Internal staff</text>
  </g>

  <g filter="url(#softShadow)">
    <rect x="510" y="585" width="380" height="60" rx="10" fill="url(#cardWhite)" stroke="#F59E0B" stroke-width="1.5"/>
    <path d="M 510 595 Q 510 585 520 585 L 880 585 Q 890 585 890 595 L 890 607 L 510 607 Z" fill="#D97706"/>
    <text x="525" y="601" font-size="11" font-weight="700" fill="#FFFFFF">P2 · CRM AGENT</text>
    <text x="700" y="627" text-anchor="middle" font-size="11" fill="#374151">Customer 360 · Orders · History</text>
    <text x="700" y="641" text-anchor="middle" font-size="10" fill="#94A3B8">Target: Sales · Customer Support</text>
  </g>

  <g filter="url(#softShadow)">
    <rect x="920" y="585" width="380" height="60" rx="10" fill="url(#cardWhite)" stroke="#F59E0B" stroke-width="1.5"/>
    <path d="M 920 595 Q 920 585 930 585 L 1290 585 Q 1300 585 1300 595 L 1300 607 L 920 607 Z" fill="#B45309"/>
    <text x="935" y="601" font-size="11" font-weight="700" fill="#FFFFFF">P3 · SALES ADVISOR AGENT</text>
    <text x="1110" y="627" text-anchor="middle" font-size="11" fill="#374151">Product advisory · Recommendations · Up-sell</text>
    <text x="1110" y="641" text-anchor="middle" font-size="10" fill="#94A3B8">Target: End customers</text>
  </g>

  <path d="M 700 558 Q 600 575 290 585" fill="none" stroke="#475569" stroke-width="1.6" marker-end="url(#arrow)"/>
  <path d="M 800 558 L 700 585" fill="none" stroke="#475569" stroke-width="1.6" marker-end="url(#arrow)"/>
  <path d="M 900 558 Q 1000 575 1110 585" fill="none" stroke="#475569" stroke-width="1.6" marker-end="url(#arrow)"/>

  <!-- LAYER 4: LLM PROVIDERS + PII MASK -->
  <rect x="40" y="720" width="1520" height="180" rx="14" fill="url(#bgLlm)" stroke="#BBF7D0" stroke-width="1"/>
  <rect x="40" y="720" width="6" height="180" rx="3" fill="#10B981"/>
  <text x="64" y="750" font-size="13" font-weight="700" fill="#047857" letter-spacing="2">LLM PROVIDERS</text>
  <text x="64" y="766" font-size="11" fill="#64748B">Cloud LLMs · All requests pass through PII Masking</text>

  <g filter="url(#shadow)">
    <rect x="560" y="752" width="480" height="44" rx="10" fill="url(#cardPii)"/>
    <text x="800" y="772" text-anchor="middle" font-size="13" font-weight="700" fill="#FFFFFF" letter-spacing="0.5">PII MASKING LAYER</text>
    <text x="800" y="788" text-anchor="middle" font-size="10" fill="#FECACA">Microsoft Presidio + VN rules · Mask before cloud LLM calls</text>
  </g>

  <g filter="url(#shadow)">
    <rect x="140" y="810" width="400" height="80" rx="10" fill="url(#cardLlmPro)"/>
    <g transform="translate(149, 834)">
      <path d="M 16 1 L 18 14 L 31 16 L 18 18 L 16 31 L 14 18 L 1 16 L 14 14 Z" fill="url(#geminiGrad)"/>
    </g>
    <text x="200" y="840" font-size="14" font-weight="700" fill="#0F172A">Gemini 2.5 Pro</text>
    <text x="200" y="858" font-size="10" fill="#134E4A">Complex tasks · Reasoning</text>
  </g>

  <g filter="url(#shadow)">
    <rect x="600" y="810" width="400" height="80" rx="10" fill="url(#cardLlmFlash)"/>
    <g transform="translate(609, 834)">
      <path d="M 16 1 L 18 14 L 31 16 L 18 18 L 16 31 L 14 18 L 1 16 L 14 14 Z" fill="url(#geminiGrad)"/>
    </g>
    <text x="660" y="840" font-size="14" font-weight="700" fill="#0F172A">Gemini 2.5 Flash</text>
    <text x="660" y="858" font-size="10" fill="#155E75">Fast · Cheap · High-volume</text>
  </g>

  <g filter="url(#shadow)">
    <rect x="1060" y="810" width="400" height="80" rx="10" fill="url(#cardWhite)" stroke="#10B981" stroke-width="1.5" stroke-dasharray="4 3"/>
    <g transform="translate(1069, 834)" fill="#CC785C">
      <path d="M 16 1 L 17 14 L 30 16 L 17 18 L 16 31 L 15 18 L 2 16 L 15 14 Z"/>
      <path d="M 16 1 L 17 14 L 30 16 L 17 18 L 16 31 L 15 18 L 2 16 L 15 14 Z" transform="rotate(45 16 16)"/>
    </g>
    <text x="1120" y="840" font-size="14" font-weight="700" fill="#0F172A">Claude Sonnet</text>
    <text x="1120" y="858" font-size="10" fill="#64748B">Fallback provider</text>
  </g>

  <!-- LAYER 5: KNOWLEDGE & DATA -->
  <rect x="40" y="910" width="1520" height="170" rx="14" fill="url(#bgData)" stroke="#C7D2FE" stroke-width="1"/>
  <rect x="40" y="910" width="6" height="170" rx="3" fill="#6366F1"/>
  <text x="64" y="930" font-size="11" font-weight="700" fill="#4338CA" letter-spacing="2">KNOWLEDGE &amp; DATA</text>

  <g filter="url(#shadow)">
    <rect x="260" y="918" width="1280" height="44" rx="10" fill="#312E81"/>
    <text x="900" y="938" text-anchor="middle" font-size="13" font-weight="700" fill="#FBBF24" letter-spacing="0.5">TOOL REGISTRY (MCP)</text>
  </g>

  <g filter="url(#shadow)">
    <rect x="80" y="980" width="270" height="80" rx="10" fill="url(#cardKg)" stroke="#F59E0B" stroke-width="2"/>
    <text x="100" y="1010" font-size="14" font-weight="700" fill="#0F172A">Knowledge Graph</text>
    <text x="100" y="1028" font-size="10" fill="#92400E">Neo4j Community</text>
    <text x="100" y="1042" font-size="10" fill="#92400E">Customer 360 · Products · Orders</text>
    <text x="100" y="1054" font-size="9" fill="#A16207">★ Core knowledge</text>
  </g>

  <g filter="url(#softShadow)">
    <rect x="365" y="980" width="270" height="80" rx="10" fill="url(#cardWhite)" stroke="#6366F1" stroke-width="1.5"/>
    <text x="385" y="1010" font-size="14" font-weight="700" fill="#0F172A">Vector DB</text>
    <text x="385" y="1028" font-size="10" fill="#64748B">pgvector · bge-m3 self-host</text>
    <text x="385" y="1042" font-size="10" fill="#64748B">SOP · Policy · FAQ embeddings</text>
  </g>

  <g filter="url(#softShadow)">
    <rect x="650" y="980" width="270" height="80" rx="10" fill="url(#cardWhite)" stroke="#6366F1" stroke-width="1.5"/>
    <text x="670" y="1010" font-size="14" font-weight="700" fill="#0F172A">Redis</text>
    <text x="670" y="1028" font-size="10" fill="#64748B">Cache · Session · Queue</text>
    <text x="670" y="1042" font-size="10" fill="#64748B">Rate limit · Hot cache</text>
  </g>

  <g filter="url(#softShadow)">
    <rect x="935" y="980" width="270" height="80" rx="10" fill="url(#cardWhite)" stroke="#6366F1" stroke-width="1.5"/>
    <text x="955" y="1010" font-size="14" font-weight="700" fill="#0F172A">PostgreSQL</text>
    <text x="955" y="1028" font-size="10" fill="#64748B">Drizzle ORM · Multi-tenant</text>
    <text x="955" y="1042" font-size="10" fill="#64748B">App · Audit · Staging</text>
  </g>

  <g filter="url(#softShadow)">
    <rect x="1220" y="980" width="300" height="80" rx="10" fill="url(#cardWhite)" stroke="#6366F1" stroke-width="1.5"/>
    <text x="1240" y="1010" font-size="14" font-weight="700" fill="#0F172A">Meilisearch</text>
    <text x="1240" y="1028" font-size="10" fill="#64748B">Full-text Search</text>
    <text x="1240" y="1042" font-size="10" fill="#64748B">Product catalog · Strong Vietnamese support</text>
  </g>

  <!-- LAYER 6: INTEGRATION & SYNC -->
  <rect x="40" y="1110" width="1520" height="220" rx="14" fill="url(#bgSync)" stroke="#FBCFE8" stroke-width="1"/>
  <rect x="40" y="1110" width="6" height="220" rx="3" fill="#EC4899"/>
  <text x="64" y="1140" font-size="13" font-weight="700" fill="#BE185D" letter-spacing="2">INTEGRATION &amp; SYNC LAYER</text>
  <text x="64" y="1156" font-size="11" fill="#64748B">Ingest from sources · Normalize · Resolve · Detect conflicts · Embed</text>

  <g filter="url(#softShadow)">
    <rect x="80" y="1175" width="380" height="60" rx="10" fill="url(#cardWhite)" stroke="#EC4899" stroke-width="1.2"/>
    <text x="270" y="1210" text-anchor="middle" font-size="13" font-weight="700" fill="#0F172A">Cron Polling</text>
  </g>

  <g filter="url(#softShadow)">
    <rect x="490" y="1175" width="380" height="60" rx="10" fill="url(#cardWhite)" stroke="#EC4899" stroke-width="1.2"/>
    <text x="680" y="1210" text-anchor="middle" font-size="13" font-weight="700" fill="#0F172A">Webhook Receiver</text>
  </g>

  <g filter="url(#softShadow)">
    <rect x="900" y="1175" width="620" height="60" rx="10" fill="url(#cardWhite)" stroke="#EC4899" stroke-width="1.5"/>
    <text x="1210" y="1210" text-anchor="middle" font-size="13" font-weight="700" fill="#0F172A">Worker Pool</text>
  </g>

  <g filter="url(#softShadow)">
    <rect x="100" y="1250" width="380" height="60" rx="10" fill="#FEE2E2" stroke="#DC2626" stroke-width="1.5"/>
    <text x="290" y="1285" text-anchor="middle" font-size="13" font-weight="700" fill="#991B1B">Dead Letter Queue (DLQ)</text>
  </g>


  <path d="M 460 1205 L 490 1205" fill="none" stroke="#475569" stroke-width="1.4" marker-end="url(#arrow)"/>
  <path d="M 870 1205 L 900 1205" fill="none" stroke="#475569" stroke-width="1.4" marker-end="url(#arrow)"/>

  <!-- LAYER 7: DATA SOURCES -->
  <rect x="40" y="1360" width="1520" height="140" rx="14" fill="url(#bgSrc)" stroke="#E9D5FF" stroke-width="1"/>
  <rect x="40" y="1360" width="6" height="140" rx="3" fill="#A855F7"/>
  <text x="64" y="1390" font-size="13" font-weight="700" fill="#7E22CE" letter-spacing="2">DATA SOURCES</text>
  <text x="64" y="1406" font-size="11" fill="#64748B">External systems · Read-mostly · Owners of source-of-truth records</text>

  <g filter="url(#softShadow)">
    <rect x="100" y="1420" width="320" height="64" rx="10" fill="url(#cardWhite)" stroke="#A855F7" stroke-width="1.5"/>
    <text x="120" y="1448" font-size="13" font-weight="700" fill="#0F172A">SAP Business One</text>
    <text x="120" y="1466" font-size="10" fill="#64748B">ERP · Read-only · Cron polling</text>
  </g>

  <g filter="url(#softShadow)">
    <rect x="450" y="1420" width="320" height="64" rx="10" fill="url(#cardWhite)" stroke="#A855F7" stroke-width="1.5"/>
    <text x="470" y="1448" font-size="13" font-weight="700" fill="#0F172A">KiotViet</text>
    <text x="470" y="1466" font-size="10" fill="#64748B">POS · Webhook + REST</text>
  </g>

  <g filter="url(#softShadow)">
    <rect x="800" y="1420" width="320" height="64" rx="10" fill="url(#cardWhite)" stroke="#A855F7" stroke-width="1.5"/>
    <text x="820" y="1448" font-size="13" font-weight="700" fill="#0F172A">Haravan</text>
    <text x="820" y="1466" font-size="10" fill="#64748B">E-commerce Web · Webhook</text>
  </g>


  <!-- INTER-LAYER ARROWS -->
  <path d="M 145 270 L 400 360" fill="none" stroke="#475569" stroke-width="1.6" marker-end="url(#arrow)"/>
  <path d="M 329 270 L 500 360" fill="none" stroke="#475569" stroke-width="1.6" marker-end="url(#arrow)"/>
  <path d="M 513 270 L 620 360" fill="none" stroke="#475569" stroke-width="1.6" marker-end="url(#arrow)"/>
  <path d="M 697 270 L 740 360" fill="none" stroke="#475569" stroke-width="1.6" marker-end="url(#arrow)"/>
  <path d="M 881 270 L 860 360" fill="none" stroke="#475569" stroke-width="1.6" marker-end="url(#arrow)"/>
  <path d="M 1065 270 L 980 360" fill="none" stroke="#475569" stroke-width="1.6" marker-end="url(#arrow)"/>
  <path d="M 1249 270 L 1100 360" fill="none" stroke="#475569" stroke-width="1.6" marker-end="url(#arrow)"/>
  <path d="M 1433 270 L 1220 360" fill="none" stroke="#475569" stroke-width="1.6" marker-end="url(#arrow)"/>

  <path d="M 800 410 L 800 510" fill="none" stroke="#475569" stroke-width="2" marker-end="url(#arrow)"/>

  <!-- Agents → PII Mask (3 red dashed, all converge to PII top) -->
  <path d="M 290 645 Q 290 700 700 752" fill="none" stroke="#DC2626" stroke-width="1.6" stroke-dasharray="5 3" marker-end="url(#arrowRed)"/>
  <path d="M 700 645 L 800 752" fill="none" stroke="#DC2626" stroke-width="1.6" stroke-dasharray="5 3" marker-end="url(#arrowRed)"/>
  <path d="M 1110 645 Q 1110 700 900 752" fill="none" stroke="#DC2626" stroke-width="1.6" stroke-dasharray="5 3" marker-end="url(#arrowRed)"/>

  <!-- PII Mask → 3 LLMs (fan out down) -->
  <path d="M 660 796 Q 500 803 340 810" fill="none" stroke="#475569" stroke-width="1.6" marker-end="url(#arrow)"/>
  <path d="M 800 796 L 800 810" fill="none" stroke="#475569" stroke-width="1.6" marker-end="url(#arrow)"/>
  <path d="M 940 796 Q 1100 803 1260 810" fill="none" stroke="#475569" stroke-width="1.6" marker-end="url(#arrow)"/>

  <!-- Gemini Pro → Claude (fallback dashed) -->
  <path d="M 540 850 Q 800 880 1060 850" fill="none" stroke="#94A3B8" stroke-width="1.2" stroke-dasharray="4 3" marker-end="url(#arrowDashed)"/>

  <!-- Agents → Tool Registry banner (3 thin dashed crossing LLM layer) -->
  <path d="M 290 645 L 290 918" fill="none" stroke="#94A3B8" stroke-width="1" stroke-dasharray="2 4" opacity="0.45" marker-end="url(#arrowDashed)"/>
  <path d="M 700 645 L 700 918" fill="none" stroke="#94A3B8" stroke-width="1" stroke-dasharray="2 4" opacity="0.45" marker-end="url(#arrowDashed)"/>
  <path d="M 1110 645 L 1110 918" fill="none" stroke="#94A3B8" stroke-width="1" stroke-dasharray="2 4" opacity="0.45" marker-end="url(#arrowDashed)"/>

  <!-- Tool Registry banner → 5 Data Stores (short vertical) -->
  <path d="M 215 962 L 215 980" fill="none" stroke="#475569" stroke-width="1.4" marker-end="url(#arrow)"/>
  <path d="M 500 962 L 500 980" fill="none" stroke="#475569" stroke-width="1.4" marker-end="url(#arrow)"/>
  <path d="M 785 962 L 785 980" fill="none" stroke="#475569" stroke-width="1.4" marker-end="url(#arrow)"/>
  <path d="M 1070 962 L 1070 980" fill="none" stroke="#475569" stroke-width="1.4" marker-end="url(#arrow)"/>
  <path d="M 1370 962 L 1370 980" fill="none" stroke="#475569" stroke-width="1.4" marker-end="url(#arrow)"/>

  <!-- Workers → Stores (upward) -->
  <path d="M 1100 1175 Q 1100 1100 1070 1060" fill="none" stroke="#EC4899" stroke-width="1.4" marker-end="url(#arrowPink)"/>
  <path d="M 950 1175 Q 750 1100 500 1060" fill="none" stroke="#EC4899" stroke-width="1.2" marker-end="url(#arrowPink)" opacity="0.7"/>
  <path d="M 920 1175 Q 600 1100 215 1060" fill="none" stroke="#EC4899" stroke-width="1.2" marker-end="url(#arrowPink)" opacity="0.7"/>
  <path d="M 1400 1175 Q 1400 1100 1370 1060" fill="none" stroke="#EC4899" stroke-width="1.2" marker-end="url(#arrowPink)" opacity="0.7"/>

  <!-- Sources → Ingestion -->
  <path d="M 260 1420 Q 220 1300 220 1235" fill="none" stroke="#A855F7" stroke-width="1.4" marker-end="url(#arrowPurple)"/>
  <path d="M 610 1420 Q 480 1300 480 1235" fill="none" stroke="#A855F7" stroke-width="1.4" marker-end="url(#arrowPurple)"/>
  <path d="M 960 1420 Q 600 1300 480 1235" fill="none" stroke="#A855F7" stroke-width="1.2" marker-end="url(#arrowPurple)" opacity="0.6"/>

  <!-- LEGEND -->
  <rect x="40" y="1530" width="1520" height="270" rx="14" fill="#FFFFFF" stroke="#E2E8F0" stroke-width="1" filter="url(#softShadow)"/>
  <text x="64" y="1560" font-size="13" font-weight="700" fill="#0F172A" letter-spacing="2">LEGEND &amp; DESIGN PRINCIPLES</text>

  <text x="64" y="1590" font-size="11" font-weight="700" fill="#475569">EDGES</text>
  <line x1="64" y1="1605" x2="120" y2="1605" stroke="#475569" stroke-width="1.6" marker-end="url(#arrow)"/>
  <text x="130" y="1609" font-size="11" fill="#334155">Synchronous request flow</text>
  <line x1="64" y1="1625" x2="120" y2="1625" stroke="#94A3B8" stroke-width="1.4" stroke-dasharray="4 3" marker-end="url(#arrowDashed)"/>
  <text x="130" y="1629" font-size="11" fill="#334155">Tool / fallback / async lookup</text>
  <line x1="64" y1="1645" x2="120" y2="1645" stroke="#DC2626" stroke-width="1.6" stroke-dasharray="5 3" marker-end="url(#arrowRed)"/>
  <text x="130" y="1649" font-size="11" fill="#334155">PII-masked path (mandatory)</text>
  <line x1="64" y1="1665" x2="120" y2="1665" stroke="#EC4899" stroke-width="1.4" marker-end="url(#arrowPink)"/>
  <text x="130" y="1669" font-size="11" fill="#334155">Ingestion / sync write</text>

  <text x="370" y="1590" font-size="11" font-weight="700" fill="#475569">HIGHLIGHTS</text>
  <rect x="370" y="1600" width="20" height="14" rx="3" fill="url(#cardKg)" stroke="#F59E0B" stroke-width="1.5"/>
  <text x="398" y="1611" font-size="11" fill="#334155">Knowledge Graph — core IP, single source of customer truth</text>
  <rect x="370" y="1622" width="20" height="14" rx="3" fill="url(#cardPii)"/>
  <text x="398" y="1633" font-size="11" fill="#334155">PII Masking — mandatory before any cloud LLM call</text>
  <rect x="370" y="1644" width="20" height="14" rx="3" fill="#67E8F9" stroke="#06B6D4" stroke-width="1.2"/>
  <text x="398" y="1655" font-size="11" fill="#334155">Redis Streams — backbone of sync pipeline</text>
  <rect x="370" y="1666" width="20" height="14" rx="3" fill="#FEE2E2" stroke="#DC2626" stroke-width="1.2"/>
  <text x="398" y="1677" font-size="11" fill="#334155">DLQ — alert + manual replay on persistent failure</text>

  <text x="850" y="1590" font-size="11" font-weight="700" fill="#475569">STACK PILLARS (FREE / SELF-HOST · Paid LLM only)</text>
  <g font-size="10" font-weight="600">
    <rect x="850" y="1602" width="120" height="22" rx="11" fill="#1F2937"/>
    <text x="910" y="1617" text-anchor="middle" fill="#FBBF24">NestJS · Drizzle</text>
    <rect x="976" y="1602" width="100" height="22" rx="11" fill="#0EA5E9"/>
    <text x="1026" y="1617" text-anchor="middle" fill="#FFFFFF">Better-Auth</text>
    <rect x="1082" y="1602" width="80" height="22" rx="11" fill="#10B981"/>
    <text x="1122" y="1617" text-anchor="middle" fill="#FFFFFF">Neo4j</text>
    <rect x="1168" y="1602" width="90" height="22" rx="11" fill="#8B5CF6"/>
    <text x="1213" y="1617" text-anchor="middle" fill="#FFFFFF">pgvector</text>
    <rect x="1264" y="1602" width="100" height="22" rx="11" fill="#EF4444"/>
    <text x="1314" y="1617" text-anchor="middle" fill="#FFFFFF">Redis Streams</text>
    <rect x="1370" y="1602" width="100" height="22" rx="11" fill="#F59E0B"/>
    <text x="1420" y="1617" text-anchor="middle" fill="#FFFFFF">Meilisearch</text>

    <rect x="850" y="1630" width="120" height="22" rx="11" fill="#0F766E"/>
    <text x="910" y="1645" text-anchor="middle" fill="#FFFFFF">Gemini 2.5 (Paid)</text>
    <rect x="976" y="1630" width="120" height="22" rx="11" fill="#1E293B"/>
    <text x="1036" y="1645" text-anchor="middle" fill="#FFFFFF">Vercel AI / Mastra</text>
    <rect x="1102" y="1630" width="100" height="22" rx="11" fill="#DB2777"/>
    <text x="1152" y="1645" text-anchor="middle" fill="#FFFFFF">Trigger.dev</text>
    <rect x="1208" y="1630" width="100" height="22" rx="11" fill="#7C3AED"/>
    <text x="1258" y="1645" text-anchor="middle" fill="#FFFFFF">Presidio (PII)</text>
    <rect x="1314" y="1630" width="100" height="22" rx="11" fill="#475569"/>
    <text x="1364" y="1645" text-anchor="middle" fill="#FFFFFF">Langfuse</text>
    <rect x="1420" y="1630" width="80" height="22" rx="11" fill="#0891B2"/>
    <text x="1460" y="1645" text-anchor="middle" fill="#FFFFFF">bge-m3</text>
  </g>

  <line x1="64" y1="1700" x2="1536" y2="1700" stroke="#E2E8F0"/>
  <text x="64" y="1722" font-size="11" font-weight="700" fill="#475569">DESIGN PRINCIPLES</text>
  <text x="64" y="1742" font-size="11" fill="#334155">① <tspan font-weight="600">Modular monolith</tspan> — reuse mia-chatbot stack (NestJS · 11 domain modules · Turborepo)</text>
  <text x="64" y="1760" font-size="11" fill="#334155">② <tspan font-weight="600">PII-first</tspan> — every prompt passes through Presidio + VN rules before cloud LLM calls (Gemini Paid plan, no training on data)</text>
  <text x="64" y="1778" font-size="11" fill="#334155">③ <tspan font-weight="600">Layered source-of-truth</tspan> — SAP/Haravan/KiotViet are raw; Knowledge Graph is the single semantic view; conflict detector reconciles</text>

  <text x="850" y="1742" font-size="11" fill="#334155">④ <tspan font-weight="600">Resilient sync</tspan> — Redis Streams + retry + DLQ; webhook idempotent + HMAC; cron watermark</text>
  <text x="850" y="1760" font-size="11" fill="#334155">⑤ <tspan font-weight="600">Cost-aware LLM</tspan> — Flash for router/P3; Pro for P1/P2; Claude as fallback</text>
  <text x="850" y="1778" font-size="11" fill="#334155">⑥ <tspan font-weight="600">Observable</tspan> — Langfuse traces every LLM call (cost · latency · tool use)</text>
  </g>
</svg>
