<svg xmlns="http://www.w3.org/2000/svg" viewBox="0 0 1600 1610" font-family="-apple-system, 'Inter', 'Segoe UI', Roboto, 'Helvetica Neue', Arial, sans-serif">
  <defs>
    <filter id="hairShadow" x="-20%" y="-20%" width="140%" height="140%">
      <feGaussianBlur in="SourceAlpha" stdDeviation="1.2"/>
      <feOffset dx="0" dy="1" result="offsetblur"/>
      <feComponentTransfer><feFuncA type="linear" slope="0.06"/></feComponentTransfer>
      <feMerge><feMergeNode/><feMergeNode in="SourceGraphic"/></feMerge>
    </filter>
    <marker id="arr" viewBox="0 0 10 10" refX="9" refY="5" markerWidth="6" markerHeight="6" orient="auto-start-reverse">
      <path d="M 0 0 L 10 5 L 0 10 z" fill="#94A3B8"/>
    </marker>
    <marker id="arrSoft" viewBox="0 0 10 10" refX="9" refY="5" markerWidth="6" markerHeight="6" orient="auto-start-reverse">
      <path d="M 0 0 L 10 5 L 0 10 z" fill="#CBD5E1"/>
    </marker>
    <marker id="arrPii" viewBox="0 0 10 10" refX="9" refY="5" markerWidth="6" markerHeight="6" orient="auto-start-reverse">
      <path d="M 0 0 L 10 5 L 0 10 z" fill="#F87171"/>
    </marker>
    <marker id="arrPink" viewBox="0 0 10 10" refX="9" refY="5" markerWidth="6" markerHeight="6" orient="auto-start-reverse">
      <path d="M 0 0 L 10 5 L 0 10 z" fill="#F9A8D4"/>
    </marker>
    <marker id="arrPurple" viewBox="0 0 10 10" refX="9" refY="5" markerWidth="6" markerHeight="6" orient="auto-start-reverse">
      <path d="M 0 0 L 10 5 L 0 10 z" fill="#C4B5FD"/>
    </marker>
    <linearGradient id="geminiGrad" x1="0" y1="0" x2="1" y2="1">
      <stop offset="0%" stop-color="#1C7ED6"/>
      <stop offset="50%" stop-color="#9B72F0"/>
      <stop offset="100%" stop-color="#F76F8E"/>
    </linearGradient>
  </defs>

  <rect width="1600" height="1610" fill="#FCFCFD"/>

  <!-- TITLE -->
  <rect x="40" y="30" width="1520" height="80" rx="10" fill="#FFFFFF" stroke="#E5E7EB" stroke-width="1"/>
  <rect x="40" y="30" width="4" height="80" rx="2" fill="#64748B"/>
  <text x="70" y="68" font-size="22" font-weight="600" fill="#0F172A" letter-spacing="0.3">BQ Shoes — High-Level Architecture</text>
  <text x="70" y="94" font-size="13" fill="#6B7280">AI-driven CRM &amp; Sales Platform · NestJS · Multi-channel · LLM Orchestration</text>
  <text x="1530" y="68" font-size="11" fill="#9CA3AF" text-anchor="end">v2026-04-19 · minimal</text>
  <text x="1530" y="94" font-size="11" fill="#9CA3AF" text-anchor="end">MIA Tech Team</text>

  <!-- LAYER 1: USER INTERFACE -->
  <rect x="40" y="140" width="1520" height="150" rx="10" fill="#FAFBFC" stroke="#E5E7EB" stroke-width="1"/>
  <rect x="40" y="140" width="4" height="150" rx="2" fill="#93C5FD"/>
  <text x="64" y="170" font-size="11" font-weight="600" fill="#64748B" letter-spacing="2">USER INTERFACE LAYER</text>
  <text x="64" y="186" font-size="10.5" fill="#9CA3AF">Multi-channel touchpoints · Internal &amp; Customer-facing</text>

  <g filter="url(#hairShadow)">
    <rect x="100" y="200" width="680" height="74" rx="8" fill="#FFFFFF" stroke="#E5E7EB" stroke-width="1"/>
    <g transform="translate(124, 223)">
      <rect x="2" y="4" width="24" height="18" rx="2" fill="#EFF6FF" stroke="#3B82F6" stroke-width="1.4"/>
      <rect x="5" y="7" width="18" height="11" rx="1" fill="#FFFFFF"/>
      <line x1="9" y1="26" x2="19" y2="26" stroke="#3B82F6" stroke-width="1.4" stroke-linecap="round"/>
      <line x1="14" y1="22" x2="14" y2="26" stroke="#3B82F6" stroke-width="1.4"/>
    </g>
    <text x="170" y="230" font-size="13.5" font-weight="600" fill="#1F2937">Web Portal</text>
    <text x="170" y="250" font-size="11" fill="#6B7280">Admin · Sales · Customer Support</text>
    <text x="170" y="265" font-size="10" fill="#9CA3AF">React + TanStack + MUI</text>
  </g>

  <g filter="url(#hairShadow)">
    <rect x="820" y="200" width="680" height="74" rx="8" fill="#FFFFFF" stroke="#E5E7EB" stroke-width="1"/>
    <g transform="translate(844, 223)">
      <path d="M 14 0 C 6.27 0 0 5.80 0 12.96 C 0 17.04 2.04 20.69 5.22 23.07 V 28 L 9.99 25.38 C 11.28 25.72 12.62 25.92 14 25.92 C 21.73 25.92 28 20.12 28 12.96 C 28 5.80 21.73 0 14 0 Z" fill="#0084FF"/>
      <path d="M 15.39 17.46 L 11.82 13.66 L 4.87 17.46 L 12.52 9.34 L 16.18 13.14 L 23.04 9.34 L 15.39 17.46 Z" fill="#FFFFFF"/>
    </g>
    <text x="890" y="230" font-size="13.5" font-weight="600" fill="#1F2937">Facebook Messenger</text>
    <text x="890" y="250" font-size="11" fill="#6B7280">End customers · Social commerce</text>
    <text x="890" y="265" font-size="10" fill="#9CA3AF">Webhook driven</text>
  </g>

  <!-- LAYER 2: API GATEWAY -->
  <rect x="40" y="320" width="1520" height="100" rx="10" fill="#FAFBFC" stroke="#E5E7EB" stroke-width="1"/>
  <rect x="40" y="320" width="4" height="100" rx="2" fill="#FCA5A5"/>
  <text x="64" y="350" font-size="11" font-weight="600" fill="#64748B" letter-spacing="2">API GATEWAY</text>

  <g filter="url(#hairShadow)">
    <rect x="350" y="360" width="900" height="50" rx="8" fill="#FFFFFF" stroke="#FCA5A5" stroke-width="1"/>
    <rect x="350" y="360" width="4" height="50" rx="2" fill="#F87171"/>
    <text x="800" y="382" text-anchor="middle" font-size="14" font-weight="600" fill="#1F2937">NestJS Gateway</text>
    <text x="800" y="400" text-anchor="middle" font-size="11" fill="#6B7280">Auth (Better-Auth) · RBAC · Rate Limit · Audit Log · Multi-tenant</text>
  </g>

  <!-- LAYER 3: AI ORCHESTRATION -->
  <rect x="40" y="450" width="1520" height="240" rx="10" fill="#FAFBFC" stroke="#E5E7EB" stroke-width="1"/>
  <rect x="40" y="450" width="4" height="240" rx="2" fill="#FCD34D"/>
  <text x="64" y="480" font-size="11" font-weight="600" fill="#64748B" letter-spacing="2">AI ORCHESTRATION LAYER</text>
  <text x="64" y="496" font-size="10.5" fill="#9CA3AF">Intent Router · Specialized Agents · Tool Registry (MCP)</text>

  <g filter="url(#hairShadow)">
    <rect x="600" y="510" width="400" height="48" rx="8" fill="#FFFFFF" stroke="#E5E7EB" stroke-width="1"/>
    <rect x="600" y="510" width="4" height="48" rx="2" fill="#F59E0B"/>
    <text x="800" y="532" text-anchor="middle" font-size="13.5" font-weight="600" fill="#1F2937">Intent Router</text>
    <text x="800" y="548" text-anchor="middle" font-size="10.5" fill="#6B7280">Classify intent → dispatch agent · Powered by Gemini Flash</text>
  </g>

  <g filter="url(#hairShadow)">
    <rect x="100" y="585" width="380" height="60" rx="8" fill="#FFFFFF" stroke="#E5E7EB" stroke-width="1"/>
    <rect x="100" y="585" width="380" height="20" rx="8" fill="#FEF3C7"/>
    <rect x="100" y="595" width="380" height="10" fill="#FEF3C7"/>
    <text x="115" y="600" font-size="10.5" font-weight="600" fill="#92400E" letter-spacing="0.6">P1 · INTERNAL FAQ AGENT</text>
    <text x="290" y="625" text-anchor="middle" font-size="11" fill="#374151">SOP / Policy lookup · Vector retrieval</text>
    <text x="290" y="639" text-anchor="middle" font-size="10" fill="#9CA3AF">Target: Internal staff</text>
  </g>

  <g filter="url(#hairShadow)">
    <rect x="510" y="585" width="380" height="60" rx="8" fill="#FFFFFF" stroke="#E5E7EB" stroke-width="1"/>
    <rect x="510" y="585" width="380" height="20" rx="8" fill="#FDE68A"/>
    <rect x="510" y="595" width="380" height="10" fill="#FDE68A"/>
    <text x="525" y="600" font-size="10.5" font-weight="600" fill="#92400E" letter-spacing="0.6">P2 · CRM AGENT</text>
    <text x="700" y="625" text-anchor="middle" font-size="11" fill="#374151">Customer 360 · Orders · History</text>
    <text x="700" y="639" text-anchor="middle" font-size="10" fill="#9CA3AF">Target: Sales · Customer Support</text>
  </g>

  <g filter="url(#hairShadow)">
    <rect x="920" y="585" width="380" height="60" rx="8" fill="#FFFFFF" stroke="#E5E7EB" stroke-width="1"/>
    <rect x="920" y="585" width="380" height="20" rx="8" fill="#FCD34D"/>
    <rect x="920" y="595" width="380" height="10" fill="#FCD34D"/>
    <text x="935" y="600" font-size="10.5" font-weight="600" fill="#78350F" letter-spacing="0.6">P3 · SALES ADVISOR AGENT</text>
    <text x="1110" y="625" text-anchor="middle" font-size="11" fill="#374151">Product advisory · Recommendations · Up-sell</text>
    <text x="1110" y="639" text-anchor="middle" font-size="10" fill="#9CA3AF">Target: End customers</text>
  </g>

  <path d="M 700 558 Q 600 575 290 585" fill="none" stroke="#CBD5E1" stroke-width="1.2" marker-end="url(#arr)"/>
  <path d="M 800 558 L 700 585" fill="none" stroke="#CBD5E1" stroke-width="1.2" marker-end="url(#arr)"/>
  <path d="M 900 558 Q 1000 575 1110 585" fill="none" stroke="#CBD5E1" stroke-width="1.2" marker-end="url(#arr)"/>

  <!-- LAYER 4: LLM PROVIDERS + PII MASK -->
  <rect x="40" y="720" width="1520" height="180" rx="10" fill="#FAFBFC" stroke="#E5E7EB" stroke-width="1"/>
  <rect x="40" y="720" width="4" height="180" rx="2" fill="#86EFAC"/>
  <text x="64" y="750" font-size="11" font-weight="600" fill="#64748B" letter-spacing="2">LLM PROVIDERS</text>
  <text x="64" y="766" font-size="10.5" fill="#9CA3AF">Cloud LLMs · All requests pass through PII Masking</text>

  <g filter="url(#hairShadow)">
    <rect x="560" y="752" width="480" height="44" rx="8" fill="#FFFFFF" stroke="#FCA5A5" stroke-width="1"/>
    <rect x="560" y="752" width="4" height="44" rx="2" fill="#F87171"/>
    <text x="800" y="772" text-anchor="middle" font-size="13" font-weight="600" fill="#1F2937" letter-spacing="0.5">PII Masking Layer</text>
    <text x="800" y="788" text-anchor="middle" font-size="10" fill="#6B7280">Microsoft Presidio + VN rules · Mask before cloud LLM calls</text>
  </g>

  <g filter="url(#hairShadow)">
    <rect x="140" y="810" width="400" height="80" rx="8" fill="#FFFFFF" stroke="#A7F3D0" stroke-width="1"/>
    <rect x="140" y="810" width="4" height="80" rx="2" fill="#34D399"/>
    <g transform="translate(151, 836)">
      <path d="M 14 1 L 15.6 12 L 27 14 L 15.6 16 L 14 27 L 12.4 16 L 1 14 L 12.4 12 Z" fill="url(#geminiGrad)"/>
    </g>
    <text x="200" y="840" font-size="13.5" font-weight="600" fill="#1F2937">Gemini 2.5 Pro</text>
    <text x="200" y="858" font-size="10.5" fill="#6B7280">Complex tasks · Reasoning</text>
    <text x="200" y="873" font-size="10.5" fill="#9CA3AF">P1 · P2 agents · Paid</text>
  </g>

  <g filter="url(#hairShadow)">
    <rect x="600" y="810" width="400" height="80" rx="8" fill="#FFFFFF" stroke="#BAE6FD" stroke-width="1"/>
    <rect x="600" y="810" width="4" height="80" rx="2" fill="#7DD3FC"/>
    <g transform="translate(611, 836)">
      <path d="M 14 1 L 15.6 12 L 27 14 L 15.6 16 L 14 27 L 12.4 16 L 1 14 L 12.4 12 Z" fill="url(#geminiGrad)"/>
    </g>
    <text x="660" y="840" font-size="13.5" font-weight="600" fill="#1F2937">Gemini 2.5 Flash</text>
    <text x="660" y="858" font-size="10.5" fill="#6B7280">Fast · Cheap · High-volume</text>
    <text x="660" y="873" font-size="10.5" fill="#9CA3AF">Router · P3 agent · Paid</text>
  </g>

  <g filter="url(#hairShadow)">
    <rect x="1060" y="810" width="400" height="80" rx="8" fill="#FFFFFF" stroke="#E5E7EB" stroke-width="1" stroke-dasharray="3 3"/>
    <rect x="1060" y="810" width="4" height="80" rx="2" fill="#CBD5E1"/>
    <g transform="translate(1071, 836)" fill="#CC785C">
      <path d="M 14 1 L 15 12 L 26 14 L 15 16 L 14 27 L 13 16 L 2 14 L 13 12 Z"/>
      <path d="M 14 1 L 15 12 L 26 14 L 15 16 L 14 27 L 13 16 L 2 14 L 13 12 Z" transform="rotate(45 14 14)"/>
    </g>
    <text x="1120" y="840" font-size="13.5" font-weight="600" fill="#1F2937">Claude Sonnet</text>
    <text x="1120" y="858" font-size="10.5" fill="#6B7280">Fallback provider</text>
    <text x="1120" y="873" font-size="10.5" fill="#9CA3AF">P2 agent on Gemini failure</text>
  </g>

  <!-- LAYER 5: KNOWLEDGE & DATA -->
  <rect x="40" y="910" width="1520" height="170" rx="10" fill="#FAFBFC" stroke="#E5E7EB" stroke-width="1"/>
  <rect x="40" y="910" width="4" height="170" rx="2" fill="#A5B4FC"/>
  <text x="64" y="930" font-size="10.5" font-weight="600" fill="#64748B" letter-spacing="2">KNOWLEDGE &amp; DATA</text>

  <g filter="url(#hairShadow)">
    <rect x="260" y="918" width="1280" height="44" rx="8" fill="#FFFFFF" stroke="#A5B4FC" stroke-width="1"/>
    <rect x="260" y="918" width="4" height="44" rx="2" fill="#6366F1"/>
    <text x="900" y="938" text-anchor="middle" font-size="12" font-weight="600" fill="#4338CA" letter-spacing="0.5">TOOL REGISTRY (MCP)</text>
    <text x="900" y="954" text-anchor="middle" font-size="10" fill="#6B7280">MCP Servers · Vercel AI SDK / Mastra · 1 server / data source · Reuse Drizzle + Zod · Type-safe · Free</text>
  </g>

  <g filter="url(#hairShadow)">
    <rect x="80" y="980" width="270" height="80" rx="8" fill="#FFFBEB" stroke="#FDE68A" stroke-width="1"/>
    <rect x="80" y="980" width="4" height="80" rx="2" fill="#FCD34D"/>
    <text x="100" y="1010" font-size="13.5" font-weight="600" fill="#1F2937">Knowledge Graph</text>
    <text x="100" y="1028" font-size="10.5" fill="#92400E">Neo4j Community</text>
    <text x="100" y="1042" font-size="10.5" fill="#92400E">Customer 360 · Products · Orders</text>
    <text x="100" y="1054" font-size="9.5" fill="#A16207">★ Core knowledge</text>
  </g>

  <g filter="url(#hairShadow)">
    <rect x="365" y="980" width="270" height="80" rx="8" fill="#FFFFFF" stroke="#E5E7EB" stroke-width="1"/>
    <rect x="365" y="980" width="4" height="80" rx="2" fill="#A5B4FC"/>
    <text x="385" y="1010" font-size="13.5" font-weight="600" fill="#1F2937">Vector DB</text>
    <text x="385" y="1028" font-size="10.5" fill="#6B7280">pgvector · bge-m3 self-host</text>
    <text x="385" y="1042" font-size="10.5" fill="#9CA3AF">SOP · Policy · FAQ embeddings</text>
  </g>

  <g filter="url(#hairShadow)">
    <rect x="650" y="980" width="270" height="80" rx="8" fill="#FFFFFF" stroke="#E5E7EB" stroke-width="1"/>
    <rect x="650" y="980" width="4" height="80" rx="2" fill="#A5B4FC"/>
    <text x="670" y="1010" font-size="13.5" font-weight="600" fill="#1F2937">Redis 7.x</text>
    <text x="670" y="1028" font-size="10.5" fill="#6B7280">Cache · Session · Queue</text>
    <text x="670" y="1042" font-size="10.5" fill="#9CA3AF">Rate limit · Hot cache</text>
  </g>

  <g filter="url(#hairShadow)">
    <rect x="935" y="980" width="270" height="80" rx="8" fill="#FFFFFF" stroke="#E5E7EB" stroke-width="1"/>
    <rect x="935" y="980" width="4" height="80" rx="2" fill="#A5B4FC"/>
    <text x="955" y="1010" font-size="13.5" font-weight="600" fill="#1F2937">PostgreSQL</text>
    <text x="955" y="1028" font-size="10.5" fill="#6B7280">Drizzle ORM · Multi-tenant</text>
    <text x="955" y="1042" font-size="10.5" fill="#9CA3AF">App · Audit · Staging</text>
  </g>

  <g filter="url(#hairShadow)">
    <rect x="1220" y="980" width="300" height="80" rx="8" fill="#FFFFFF" stroke="#E5E7EB" stroke-width="1"/>
    <rect x="1220" y="980" width="4" height="80" rx="2" fill="#A5B4FC"/>
    <text x="1240" y="1010" font-size="13.5" font-weight="600" fill="#1F2937">Meilisearch</text>
    <text x="1240" y="1028" font-size="10.5" fill="#6B7280">Full-text Search</text>
    <text x="1240" y="1042" font-size="10.5" fill="#9CA3AF">Product catalog · Strong Vietnamese support</text>
  </g>

  <!-- LAYER 6: INTEGRATION & SYNC -->
  <rect x="40" y="1110" width="1520" height="220" rx="10" fill="#FAFBFC" stroke="#E5E7EB" stroke-width="1"/>
  <rect x="40" y="1110" width="4" height="220" rx="2" fill="#F9A8D4"/>
  <text x="64" y="1140" font-size="11" font-weight="600" fill="#64748B" letter-spacing="2">INTEGRATION &amp; SYNC LAYER</text>
  <text x="64" y="1156" font-size="10.5" fill="#9CA3AF">Ingest from sources · Normalize · Resolve · Detect conflicts · Embed</text>

  <g filter="url(#hairShadow)">
    <rect x="100" y="1175" width="240" height="60" rx="8" fill="#FFFFFF" stroke="#E5E7EB" stroke-width="1"/>
    <rect x="100" y="1175" width="4" height="60" rx="2" fill="#F9A8D4"/>
    <text x="115" y="1200" font-size="12.5" font-weight="600" fill="#1F2937">Cron Polling</text>
    <text x="115" y="1218" font-size="10.5" fill="#6B7280">SAP B1 · 5–15 min</text>
    <text x="115" y="1230" font-size="9.5" fill="#9CA3AF">Idempotent · Watermark</text>
  </g>

  <g filter="url(#hairShadow)">
    <rect x="360" y="1175" width="240" height="60" rx="8" fill="#FFFFFF" stroke="#E5E7EB" stroke-width="1"/>
    <rect x="360" y="1175" width="4" height="60" rx="2" fill="#F9A8D4"/>
    <text x="375" y="1200" font-size="12.5" font-weight="600" fill="#1F2937">Webhook Receiver</text>
    <text x="375" y="1218" font-size="10.5" fill="#6B7280">Haravan · KiotViet</text>
    <text x="375" y="1230" font-size="9.5" fill="#9CA3AF">HMAC + Idempotency</text>
  </g>

  <g filter="url(#hairShadow)">
    <rect x="640" y="1175" width="280" height="60" rx="8" fill="#F0FDFA" stroke="#A7F3D0" stroke-width="1"/>
    <rect x="640" y="1175" width="4" height="60" rx="2" fill="#5EEAD4"/>
    <text x="655" y="1200" font-size="12.5" font-weight="600" fill="#1F2937">Redis Streams Queue</text>
    <text x="655" y="1218" font-size="10.5" fill="#0F766E">sync.* · retry · DLQ alert</text>
    <text x="655" y="1230" font-size="9.5" fill="#14B8A6">Exponential backoff · 5x → DLQ</text>
  </g>

  <g filter="url(#hairShadow)">
    <rect x="950" y="1175" width="540" height="60" rx="8" fill="#FFFFFF" stroke="#E5E7EB" stroke-width="1"/>
    <rect x="950" y="1175" width="4" height="60" rx="2" fill="#F9A8D4"/>
    <text x="965" y="1200" font-size="12.5" font-weight="600" fill="#1F2937">Worker Pool (Trigger.dev)</text>
    <text x="965" y="1218" font-size="10.5" fill="#6B7280">ETL Normalize · Entity Resolver (SKU/Phone) · Conflict Detector · Embedding</text>
    <text x="965" y="1230" font-size="9.5" fill="#9CA3AF">Output → Knowledge Graph · pgvector · PostgreSQL · Meilisearch</text>
  </g>

  <g filter="url(#hairShadow)">
    <rect x="100" y="1250" width="380" height="60" rx="8" fill="#FEF2F2" stroke="#FCA5A5" stroke-width="1"/>
    <rect x="100" y="1250" width="4" height="60" rx="2" fill="#F87171"/>
    <text x="115" y="1275" font-size="12" font-weight="600" fill="#991B1B">Dead Letter Queue (DLQ)</text>
    <text x="115" y="1292" font-size="10.5" fill="#B91C1C">Alert ops on persistent failures</text>
    <text x="115" y="1304" font-size="9.5" fill="#DC2626">Manual replay · Root-cause review</text>
  </g>

  <g filter="url(#hairShadow)">
    <rect x="500" y="1250" width="420" height="60" rx="8" fill="#FFFBEB" stroke="#FDE68A" stroke-width="1"/>
    <rect x="500" y="1250" width="4" height="60" rx="2" fill="#FCD34D"/>
    <text x="515" y="1275" font-size="12" font-weight="600" fill="#92400E">Conflict Detector</text>
    <text x="515" y="1292" font-size="10.5" fill="#B45309">Multi-source data reconciliation</text>
    <text x="515" y="1304" font-size="9.5" fill="#D97706">SAP vs Haravan vs KiotViet · last-write-wins + audit</text>
  </g>

  <g filter="url(#hairShadow)">
    <rect x="940" y="1250" width="280" height="60" rx="8" fill="#FFFFFF" stroke="#E5E7EB" stroke-width="1"/>
    <rect x="940" y="1250" width="4" height="60" rx="2" fill="#CBD5E1"/>
    <text x="955" y="1275" font-size="12" font-weight="600" fill="#1F2937">Langfuse</text>
    <text x="955" y="1292" font-size="10.5" fill="#6B7280">LLM Observability</text>
    <text x="955" y="1304" font-size="9.5" fill="#9CA3AF">Trace · Cost · Latency</text>
  </g>

  <g filter="url(#hairShadow)">
    <rect x="1240" y="1250" width="250" height="60" rx="8" fill="#FFFFFF" stroke="#E5E7EB" stroke-width="1"/>
    <rect x="1240" y="1250" width="4" height="60" rx="2" fill="#CBD5E1"/>
    <text x="1255" y="1275" font-size="12" font-weight="600" fill="#1F2937">Doc Uploader</text>
    <text x="1255" y="1292" font-size="10.5" fill="#6B7280">Lark / Excel SOP · Policy</text>
    <text x="1255" y="1304" font-size="9.5" fill="#9CA3AF">→ Embedding Worker</text>
  </g>

  <path d="M 340 1205 L 360 1205" fill="none" stroke="#CBD5E1" stroke-width="1.2" marker-end="url(#arr)"/>
  <path d="M 600 1205 L 640 1205" fill="none" stroke="#CBD5E1" stroke-width="1.2" marker-end="url(#arr)"/>
  <path d="M 920 1205 L 950 1205" fill="none" stroke="#CBD5E1" stroke-width="1.2" marker-end="url(#arr)"/>

  <!-- LAYER 7: DATA SOURCES -->
  <rect x="40" y="1360" width="1520" height="140" rx="10" fill="#FAFBFC" stroke="#E5E7EB" stroke-width="1"/>
  <rect x="40" y="1360" width="4" height="140" rx="2" fill="#C4B5FD"/>
  <text x="64" y="1390" font-size="11" font-weight="600" fill="#64748B" letter-spacing="2">DATA SOURCES</text>
  <text x="64" y="1406" font-size="10.5" fill="#9CA3AF">External systems · Read-mostly · Owners of source-of-truth records</text>

  <g filter="url(#hairShadow)">
    <rect x="100" y="1420" width="320" height="64" rx="8" fill="#FFFFFF" stroke="#E5E7EB" stroke-width="1"/>
    <rect x="100" y="1420" width="4" height="64" rx="2" fill="#C4B5FD"/>
    <text x="120" y="1448" font-size="12.5" font-weight="600" fill="#1F2937">SAP Business One</text>
    <text x="120" y="1466" font-size="10.5" fill="#6B7280">ERP · Read-only · Cron polling</text>
    <text x="120" y="1478" font-size="9.5" fill="#9CA3AF">Source-of-truth: Products, inventory, pricing, suppliers</text>
  </g>

  <g filter="url(#hairShadow)">
    <rect x="450" y="1420" width="320" height="64" rx="8" fill="#FFFFFF" stroke="#E5E7EB" stroke-width="1"/>
    <rect x="450" y="1420" width="4" height="64" rx="2" fill="#C4B5FD"/>
    <text x="470" y="1448" font-size="12.5" font-weight="600" fill="#1F2937">KiotViet</text>
    <text x="470" y="1466" font-size="10.5" fill="#6B7280">POS · Webhook + REST</text>
    <text x="470" y="1478" font-size="9.5" fill="#9CA3AF">Source-of-truth: in-store retail</text>
  </g>

  <g filter="url(#hairShadow)">
    <rect x="800" y="1420" width="320" height="64" rx="8" fill="#FFFFFF" stroke="#E5E7EB" stroke-width="1"/>
    <rect x="800" y="1420" width="4" height="64" rx="2" fill="#C4B5FD"/>
    <text x="820" y="1448" font-size="12.5" font-weight="600" fill="#1F2937">Haravan</text>
    <text x="820" y="1466" font-size="10.5" fill="#6B7280">E-commerce Web · Webhook</text>
    <text x="820" y="1478" font-size="9.5" fill="#9CA3AF">Source-of-truth: online orders</text>
  </g>

  <g filter="url(#hairShadow)">
    <rect x="1150" y="1420" width="350" height="64" rx="8" fill="#FFFFFF" stroke="#E5E7EB" stroke-width="1"/>
    <rect x="1150" y="1420" width="4" height="64" rx="2" fill="#C4B5FD"/>
    <text x="1170" y="1448" font-size="12.5" font-weight="600" fill="#1F2937">Lark / Excel Documents</text>
    <text x="1170" y="1466" font-size="10.5" fill="#6B7280">SOP · Policy · FAQ</text>
    <text x="1170" y="1478" font-size="9.5" fill="#9CA3AF">Doc Uploader → Embedding Worker</text>
  </g>

  <!-- INTER-LAYER ARROWS -->
  <path d="M 440 274 L 550 360" fill="none" stroke="#CBD5E1" stroke-width="1.2" marker-end="url(#arr)"/>
  <path d="M 1160 274 L 1050 360" fill="none" stroke="#CBD5E1" stroke-width="1.2" marker-end="url(#arr)"/>

  <path d="M 800 410 L 800 510" fill="none" stroke="#CBD5E1" stroke-width="1.4" marker-end="url(#arr)"/>

  <path d="M 290 645 Q 290 700 700 752" fill="none" stroke="#FCA5A5" stroke-width="1.2" stroke-dasharray="4 3" marker-end="url(#arrPii)"/>
  <path d="M 700 645 L 800 752" fill="none" stroke="#FCA5A5" stroke-width="1.2" stroke-dasharray="4 3" marker-end="url(#arrPii)"/>
  <path d="M 1110 645 Q 1110 700 900 752" fill="none" stroke="#FCA5A5" stroke-width="1.2" stroke-dasharray="4 3" marker-end="url(#arrPii)"/>

  <path d="M 660 796 Q 500 803 340 810" fill="none" stroke="#CBD5E1" stroke-width="1.2" marker-end="url(#arr)"/>
  <path d="M 800 796 L 800 810" fill="none" stroke="#CBD5E1" stroke-width="1.2" marker-end="url(#arr)"/>
  <path d="M 940 796 Q 1100 803 1260 810" fill="none" stroke="#CBD5E1" stroke-width="1.2" marker-end="url(#arr)"/>

  <path d="M 540 850 Q 800 880 1060 850" fill="none" stroke="#CBD5E1" stroke-width="1" stroke-dasharray="3 3" marker-end="url(#arrSoft)"/>

  <path d="M 290 645 L 290 918" fill="none" stroke="#CBD5E1" stroke-width="0.8" stroke-dasharray="2 4" opacity="0.5" marker-end="url(#arrSoft)"/>
  <path d="M 700 645 L 700 918" fill="none" stroke="#CBD5E1" stroke-width="0.8" stroke-dasharray="2 4" opacity="0.5" marker-end="url(#arrSoft)"/>
  <path d="M 1110 645 L 1110 918" fill="none" stroke="#CBD5E1" stroke-width="0.8" stroke-dasharray="2 4" opacity="0.5" marker-end="url(#arrSoft)"/>

  <path d="M 215 962 L 215 980" fill="none" stroke="#CBD5E1" stroke-width="1.2" marker-end="url(#arr)"/>
  <path d="M 500 962 L 500 980" fill="none" stroke="#CBD5E1" stroke-width="1.2" marker-end="url(#arr)"/>
  <path d="M 785 962 L 785 980" fill="none" stroke="#CBD5E1" stroke-width="1.2" marker-end="url(#arr)"/>
  <path d="M 1070 962 L 1070 980" fill="none" stroke="#CBD5E1" stroke-width="1.2" marker-end="url(#arr)"/>
  <path d="M 1370 962 L 1370 980" fill="none" stroke="#CBD5E1" stroke-width="1.2" marker-end="url(#arr)"/>

  <path d="M 1100 1175 Q 1100 1100 1070 1060" fill="none" stroke="#F9A8D4" stroke-width="1.2" marker-end="url(#arrPink)"/>
  <path d="M 1050 1175 Q 800 1100 500 1060" fill="none" stroke="#F9A8D4" stroke-width="1" marker-end="url(#arrPink)" opacity="0.7"/>
  <path d="M 1000 1175 Q 600 1100 215 1060" fill="none" stroke="#F9A8D4" stroke-width="1" marker-end="url(#arrPink)" opacity="0.7"/>
  <path d="M 1300 1175 Q 1380 1100 1370 1060" fill="none" stroke="#F9A8D4" stroke-width="1" marker-end="url(#arrPink)" opacity="0.7"/>

  <path d="M 260 1420 Q 220 1300 220 1235" fill="none" stroke="#C4B5FD" stroke-width="1.2" marker-end="url(#arrPurple)"/>
  <path d="M 610 1420 Q 480 1300 480 1235" fill="none" stroke="#C4B5FD" stroke-width="1.2" marker-end="url(#arrPurple)"/>
  <path d="M 960 1420 Q 600 1300 480 1235" fill="none" stroke="#C4B5FD" stroke-width="1" marker-end="url(#arrPurple)" opacity="0.6"/>
  <path d="M 1325 1420 Q 1370 1340 1370 1310" fill="none" stroke="#C4B5FD" stroke-width="1.2" marker-end="url(#arrPurple)"/>

  <!-- EDGES LEGEND -->
  <rect x="40" y="1530" width="1520" height="60" rx="10" fill="#FFFFFF" stroke="#E5E7EB" stroke-width="1"/>
  <text x="64" y="1554" font-size="11" font-weight="600" fill="#64748B" letter-spacing="2">EDGES</text>

  <line x1="120" y1="1568" x2="176" y2="1568" stroke="#CBD5E1" stroke-width="1.4" marker-end="url(#arr)"/>
  <text x="186" y="1572" font-size="10.5" fill="#374151">Synchronous request flow</text>

  <line x1="400" y1="1568" x2="456" y2="1568" stroke="#CBD5E1" stroke-width="1" stroke-dasharray="3 3" marker-end="url(#arrSoft)"/>
  <text x="466" y="1572" font-size="10.5" fill="#374151">Tool / fallback / async lookup</text>

  <line x1="700" y1="1568" x2="756" y2="1568" stroke="#FCA5A5" stroke-width="1.4" stroke-dasharray="4 3" marker-end="url(#arrPii)"/>
  <text x="766" y="1572" font-size="10.5" fill="#374151">PII-masked path (mandatory)</text>

  <line x1="1010" y1="1568" x2="1066" y2="1568" stroke="#F9A8D4" stroke-width="1.4" marker-end="url(#arrPink)"/>
  <text x="1076" y="1572" font-size="10.5" fill="#374151">Ingestion / sync write</text>

  <line x1="1280" y1="1568" x2="1336" y2="1568" stroke="#C4B5FD" stroke-width="1.4" marker-end="url(#arrPurple)"/>
  <text x="1346" y="1572" font-size="10.5" fill="#374151">Source → ingestion</text>
</svg>
